<svg width="649.9349609375px" height="122.021240234375px" xmlns="http://www.w3.org/2000/svg" viewBox="-74.96748046875001 13.9893798828125 649.9349609375 122.021240234375" style="background: none;" preserveAspectRatio="xMidYMid"><defs><linearGradient id="editing-glowing-gradient" x1="0.8146601955249185" x2="0.18533980447508147" y1="0.8885729807284856" y2="0.11142701927151444"><stop offset="0" stop-color="#7443ff"></stop><stop offset="1" stop-color="#fff690"></stop></linearGradient><filter id="editing-glowing" x="-100%" y="-100%" width="300%" height="300%"><feGaussianBlur in="SourceGraphic" result="blur" stdDeviation="10"></feGaussianBlur><feMerge><feMergeNode in="blur"></feMergeNode><feMergeNode in="SourceGraphic"></feMergeNode></feMerge></filter></defs><g filter="url(#editing-glowing)"><g transform="translate(18.4150048494339, 104.78218841552734)"><path d="M16.45-3.52L16.45-3.52L16.45-3.52Q14.46 1.28 8.13 1.28L8.13 1.28L8.13 1.28Q4.86 1.28 2.82-0.96L2.82-0.96L2.82-0.96Q1.09-2.94 1.09-4.93L1.09-4.93L1.09-4.93Q1.09-10.11 3.46-20.22L3.46-20.22L5.82-32.64L18.82-33.92L14.91-13.70L14.91-13.70Q13.82-8.96 13.82-7.30L13.82-7.30L13.82-7.30Q13.82-3.65 16.45-3.52ZM6.98-41.54L6.98-41.54L6.98-41.54Q6.98-44.03 9.06-45.38L9.06-45.38L9.06-45.38Q11.14-46.72 14.14-46.72L14.14-46.72L14.14-46.72Q17.15-46.72 18.98-45.38L18.98-45.38L18.98-45.38Q20.80-44.03 20.80-41.54L20.80-41.54L20.80-41.54Q20.80-39.04 18.78-37.76L18.78-37.76L18.78-37.76Q16.77-36.48 13.76-36.48L13.76-36.48L13.76-36.48Q10.75-36.48 8.86-37.76L8.86-37.76L8.86-37.76Q6.98-39.04 6.98-41.54ZM67.97 1.28L67.97 1.28L67.97 1.28Q60.22 1.28 60.22-4.74L60.22-4.74L60.22-4.74Q60.22-7.36 61.34-12.45L61.34-12.45L61.34-12.45Q62.46-17.54 62.85-19.58L62.85-19.58L62.85-19.58Q63.74-24.26 63.74-25.73L63.74-25.73L63.74-25.73Q63.74-28.99 61.31-28.99L61.31-28.99L61.31-28.99Q59.71-28.99 58.18-26.78L58.18-26.78L58.18-26.78Q56.64-24.58 55.94-20.16L55.94-20.16L51.97 0L39.49 1.28L42.94-16.13L42.94-16.13Q43.52-19.01 44.03-22.27L44.03-22.27L44.03-22.27Q44.54-25.54 44.54-26.05L44.54-26.05L44.54-26.05Q44.54-28.99 42.37-28.99L42.37-28.99L42.37-28.99Q40.90-28.99 39.30-26.82L39.30-26.82L39.30-26.82Q37.70-24.64 36.80-20.16L36.80-20.16L32.90 0L20.29 1.28L27.01-32.64L37.44-33.92L36.35-27.46L36.35-27.46Q38.02-30.91 41.09-32.42L41.09-32.42L41.09-32.42Q44.16-33.92 48.96-33.92L48.96-33.92L48.96-33.92Q51.71-33.92 53.50-32.58L53.50-32.58L53.50-32.58Q55.30-31.23 55.87-29.06L55.87-29.06L55.87-29.06Q56.96-31.30 59.74-32.61L59.74-32.61L59.74-32.61Q62.53-33.92 65.95-33.92L65.95-33.92L65.95-33.92Q69.38-33.92 71.07-33.18L71.07-33.18L71.07-33.18Q72.77-32.45 73.79-31.23L73.79-31.23L73.79-31.23Q75.52-28.99 75.52-24.90L75.52-24.90L75.52-24.90Q75.52-20.86 73.79-12.48L73.79-12.48L73.79-12.48Q72.90-8.38 72.90-6.88L72.90-6.88L72.90-6.88Q72.90-5.38 73.76-4.48L73.76-4.48L73.76-4.48Q74.62-3.58 75.90-3.46L75.90-3.46L75.90-3.46Q75.26-1.28 73.06 0L73.06 0L73.06 0Q70.85 1.28 67.97 1.28ZM83.62-1.92L83.62-1.92L83.62-1.92Q82.11-3.58 81.44-6.21L81.44-6.21L81.44-6.21Q80.77-8.83 80.77-13.12L80.77-13.12L80.77-13.12Q80.77-17.41 82.24-21.31L82.24-21.31L82.24-21.31Q83.71-25.22 86.40-28.03L86.40-28.03L86.40-28.03Q91.90-33.92 100.99-33.92L100.99-33.92L100.99-33.92Q104.26-33.92 106.62-32.83L106.62-32.83L117.57-33.92L112.83-8.96L112.83-8.96Q112.64-8.19 112.64-6.78L112.64-6.78L112.64-6.78Q112.64-5.38 113.50-4.48L113.50-4.48L113.50-4.48Q114.37-3.58 115.65-3.46L115.65-3.46L115.65-3.46Q115.01-1.28 112.67 0L112.67 0L112.67 0Q110.34 1.28 107.71 1.28L107.71 1.28L107.71 1.28Q105.09 1.28 103.33 0.29L103.33 0.29L103.33 0.29Q101.57-0.70 101.06-2.37L101.06-2.37L101.06-2.37Q100.03-0.77 97.86 0.26L97.86 0.26L97.86 0.26Q95.68 1.28 92.77 1.28L92.77 1.28L92.77 1.28Q89.86 1.28 87.49 0.51L87.49 0.51L87.49 0.51Q85.12-0.26 83.62-1.92ZM97.12-27.90L97.12-27.90L97.12-27.90Q96.38-26.75 95.74-24.80L95.74-24.80L95.74-24.80Q95.10-22.85 94.05-17.63L94.05-17.63L94.05-17.63Q92.99-12.42 92.99-8.70L92.99-8.70L92.99-8.70Q92.99-4.99 93.57-3.90L93.57-3.90L93.57-3.90Q94.14-2.82 95.17-2.82L95.17-2.82L95.17-2.82Q97.22-2.82 98.72-4.77L98.72-4.77L98.72-4.77Q100.22-6.72 100.80-10.18L100.80-10.18L104.19-28.93L104.19-28.93Q102.85-30.08 101.28-30.08L101.28-30.08L101.28-30.08Q99.71-30.08 98.78-29.57L98.78-29.57L98.78-29.57Q97.86-29.06 97.12-27.90ZM125.31-26.75L125.31-26.75L125.31-26.75Q127.49-29.82 130.78-31.87L130.78-31.87L130.78-31.87Q134.08-33.92 138.11-33.92L138.11-33.92L138.11-33.92Q142.14-33.92 144.06-32.64L144.06-32.64L156.61-33.92L152.26-9.34L152.26-9.34Q150.02 3.20 145.28 8.13L145.28 8.13L145.28 8.13Q140.74 12.80 131.90 12.80L131.90 12.80L131.90 12.80Q125.18 12.80 121.34 10.69L121.34 10.69L121.34 10.69Q117.50 8.58 117.50 5.06L117.50 5.06L117.50 5.06Q117.50 2.43 119.49 0.93L119.49 0.93L119.49 0.93Q121.47-0.58 124.54-0.58L124.54-0.58L124.54-0.58Q127.23-0.58 129.28 0.64L129.28 0.64L129.28 0.64Q130.50 1.28 131.07 2.18L131.07 2.18L131.07 2.18Q129.60 3.46 129.60 5.57L129.60 5.57L129.60 5.57Q129.60 8.32 132.16 8.32L132.16 8.32L132.16 8.32Q136.45 8.32 138.88-1.79L138.88-1.79L138.88-1.79Q139.58-4.54 140.16-7.30L140.16-7.30L140.16-7.30Q137.28-3.78 130.75-3.78L130.75-3.78L130.75-3.78Q126.21-3.78 123.58-5.95L123.58-5.95L123.58-5.95Q120.96-8.13 120.96-13.25L120.96-13.25L120.96-13.25Q120.96-16.45 122.05-20.06L122.05-20.06L122.05-20.06Q123.14-23.68 125.31-26.75ZM133.63-13.06L133.63-13.06L133.63-13.06Q133.63-8.70 135.87-8.70L135.87-8.70L135.87-8.70Q137.41-8.70 138.88-10.37L138.88-10.37L138.88-10.37Q140.03-11.71 140.48-13.70L140.48-13.70L143.74-30.14L143.74-30.14Q143.42-30.21 143.10-30.34L143.10-30.34L143.10-30.34Q142.46-30.59 141.63-30.59L141.63-30.59L141.63-30.59Q137.73-30.59 135.42-24.19L135.42-24.19L135.42-24.19Q133.63-19.20 133.63-13.06ZM185.02-10.82L185.02-10.82L185.02-10.82Q186.62-9.73 186.62-7.33L186.62-7.33L186.62-7.33Q186.62-4.93 185.41-3.39L185.41-3.39L185.41-3.39Q184.19-1.86 182.21-0.83L182.21-0.83L182.21-0.83Q178.11 1.28 173.70 1.28L173.70 1.28L173.70 1.28Q169.28 1.28 166.69 0.32L166.69 0.32L166.69 0.32Q164.10-0.64 162.37-2.43L162.37-2.43L162.37-2.43Q158.98-5.82 158.98-12.03L158.98-12.03L158.98-12.03Q158.98-21.70 164.22-27.58L164.22-27.58L164.22-27.58Q169.86-33.92 179.65-33.92L179.65-33.92L179.65-33.92Q185.73-33.92 188.74-31.36L188.74-31.36L188.74-31.36Q190.98-29.44 190.98-26.30L190.98-26.30L190.98-26.30Q190.98-15.04 171.52-15.04L171.52-15.04L171.52-15.04Q171.26-13.38 171.26-11.97L171.26-11.97L171.26-11.97Q171.26-9.02 172.58-7.90L172.58-7.90L172.58-7.90Q173.89-6.78 176.32-6.78L176.32-6.78L176.32-6.78Q178.75-6.78 181.34-7.90L181.34-7.90L181.34-7.90Q183.94-9.02 185.02-10.82ZM171.97-17.79L171.97-17.79L171.97-17.79Q176.51-17.79 179.14-20.61L179.14-20.61L179.14-20.61Q181.76-23.30 181.76-27.58L181.76-27.58L181.76-27.58Q181.76-29.06 181.22-29.86L181.22-29.86L181.22-29.86Q180.67-30.66 179.58-30.66L179.58-30.66L179.58-30.66Q178.50-30.66 177.57-30.24L177.57-30.24L177.57-30.24Q176.64-29.82 175.68-28.42L175.68-28.42L175.68-28.42Q173.31-25.22 171.97-17.79ZM212.29-22.46L212.29-22.46L212.29-22.46Q213.18-24.83 213.18-26.88L213.18-26.88L213.18-26.88Q213.18-30.66 210.11-30.66L210.11-30.66L210.11-30.66Q208.51-30.66 207.20-29.22L207.20-29.22L207.20-29.22Q205.89-27.78 205.89-25.98L205.89-25.98L205.89-25.98Q205.89-24.70 206.91-23.68L206.91-23.68L206.91-23.68Q208.38-22.27 212.16-19.97L212.16-19.97L212.16-19.97Q215.94-17.66 217.38-15.78L217.38-15.78L217.38-15.78Q218.82-13.89 218.82-11.30L218.82-11.30L218.82-11.30Q218.82-8.70 217.57-6.34L217.57-6.34L217.57-6.34Q216.32-3.97 214.08-2.30L214.08-2.30L214.08-2.30Q209.28 1.28 201.60 1.28L201.60 1.28L201.60 1.28Q197.44 1.28 194.24-0.90L194.24-0.90L194.24-0.90Q191.04-3.01 191.04-5.50L191.04-5.50L191.04-5.50Q191.04-8 192.86-9.47L192.86-9.47L192.86-9.47Q194.69-10.94 197.38-10.94L197.38-10.94L197.38-10.94Q200.06-10.94 201.73-9.92L201.73-9.92L201.73-9.92Q200.90-7.81 200.90-6.40L200.90-6.40L200.90-6.40Q200.90-2.18 204.48-2.18L204.48-2.18L204.48-2.18Q206.02-2.18 207.04-3.14L207.04-3.14L207.04-3.14Q208.06-4.10 208.06-5.76L208.06-5.76L208.06-5.76Q208.06-9.02 202.56-12.48L202.56-12.48L202.56-12.48Q198.08-15.42 197.06-16.58L197.06-16.58L197.06-16.58Q195.33-18.62 195.33-21.18L195.33-21.18L195.33-21.18Q195.33-23.74 196.54-26.18L196.54-26.18L196.54-26.18Q197.76-28.61 200.00-30.34L200.00-30.34L200.00-30.34Q204.67-33.92 212.80-33.92L212.80-33.92L212.80-33.92Q216.96-33.92 219.42-32.26L219.42-32.26L219.42-32.26Q221.89-30.59 221.89-27.78L221.89-27.78L221.89-27.78Q221.89-24.96 220.19-23.36L220.19-23.36L220.19-23.36Q218.50-21.76 215.42-21.76L215.42-21.76L215.42-21.76Q213.31-21.76 212.29-22.46ZM241.98-26.75L241.98-26.75L241.98-26.75Q244.16-29.82 247.46-31.87L247.46-31.87L247.46-31.87Q250.75-33.92 254.78-33.92L254.78-33.92L254.78-33.92Q258.82-33.92 260.74-32.64L260.74-32.64L273.28-33.92L268.93-9.34L268.93-9.34Q266.69 3.20 261.95 8.13L261.95 8.13L261.95 8.13Q257.41 12.80 248.58 12.80L248.58 12.80L248.58 12.80Q241.86 12.80 238.02 10.69L238.02 10.69L238.02 10.69Q234.18 8.58 234.18 5.06L234.18 5.06L234.18 5.06Q234.18 2.43 236.16 0.93L236.16 0.93L236.16 0.93Q238.14-0.58 241.22-0.58L241.22-0.58L241.22-0.58Q243.90-0.58 245.95 0.64L245.95 0.64L245.95 0.64Q247.17 1.28 247.74 2.18L247.74 2.18L247.74 2.18Q246.27 3.46 246.27 5.57L246.27 5.57L246.27 5.57Q246.27 8.32 248.83 8.32L248.83 8.32L248.83 8.32Q253.12 8.32 255.55-1.79L255.55-1.79L255.55-1.79Q256.26-4.54 256.83-7.30L256.83-7.30L256.83-7.30Q253.95-3.78 247.42-3.78L247.42-3.78L247.42-3.78Q242.88-3.78 240.26-5.95L240.26-5.95L240.26-5.95Q237.63-8.13 237.63-13.25L237.63-13.25L237.63-13.25Q237.63-16.45 238.72-20.06L238.72-20.06L238.72-20.06Q239.81-23.68 241.98-26.75ZM250.30-13.06L250.30-13.06L250.30-13.06Q250.30-8.70 252.54-8.70L252.54-8.70L252.54-8.70Q254.08-8.70 255.55-10.37L255.55-10.37L255.55-10.37Q256.70-11.71 257.15-13.70L257.15-13.70L260.42-30.14L260.42-30.14Q260.10-30.21 259.78-30.34L259.78-30.34L259.78-30.34Q259.14-30.59 258.30-30.59L258.30-30.59L258.30-30.59Q254.40-30.59 252.10-24.19L252.10-24.19L252.10-24.19Q250.30-19.20 250.30-13.06ZM278.56-1.92L278.56-1.92L278.56-1.92Q277.06-3.58 276.38-6.21L276.38-6.21L276.38-6.21Q275.71-8.83 275.71-13.12L275.71-13.12L275.71-13.12Q275.71-17.41 277.18-21.31L277.18-21.31L277.18-21.31Q278.66-25.22 281.34-28.03L281.34-28.03L281.34-28.03Q286.85-33.92 295.94-33.92L295.94-33.92L295.94-33.92Q299.20-33.92 301.57-32.83L301.57-32.83L312.51-33.92L307.78-8.96L307.78-8.96Q307.58-8.19 307.58-6.78L307.58-6.78L307.58-6.78Q307.58-5.38 308.45-4.48L308.45-4.48L308.45-4.48Q309.31-3.58 310.59-3.46L310.59-3.46L310.59-3.46Q309.95-1.28 307.62 0L307.62 0L307.62 0Q305.28 1.28 302.66 1.28L302.66 1.28L302.66 1.28Q300.03 1.28 298.27 0.29L298.27 0.29L298.27 0.29Q296.51-0.70 296-2.37L296-2.37L296-2.37Q294.98-0.77 292.80 0.26L292.80 0.26L292.80 0.26Q290.62 1.28 287.71 1.28L287.71 1.28L287.71 1.28Q284.80 1.28 282.43 0.51L282.43 0.51L282.43 0.51Q280.06-0.26 278.56-1.92ZM292.06-27.90L292.06-27.90L292.06-27.90Q291.33-26.75 290.69-24.80L290.69-24.80L290.69-24.80Q290.05-22.85 288.99-17.63L288.99-17.63L288.99-17.63Q287.94-12.42 287.94-8.70L287.94-8.70L287.94-8.70Q287.94-4.99 288.51-3.90L288.51-3.90L288.51-3.90Q289.09-2.82 290.11-2.82L290.11-2.82L290.11-2.82Q292.16-2.82 293.66-4.77L293.66-4.77L293.66-4.77Q295.17-6.72 295.74-10.18L295.74-10.18L299.14-28.93L299.14-28.93Q297.79-30.08 296.22-30.08L296.22-30.08L296.22-30.08Q294.66-30.08 293.73-29.57L293.73-29.57L293.73-29.57Q292.80-29.06 292.06-27.90ZM331.26-3.52L331.26-3.52L331.26-3.52Q329.28 1.28 322.94 1.28L322.94 1.28L322.94 1.28Q319.74 1.28 317.70-0.96L317.70-0.96L317.70-0.96Q316.03-2.82 316.03-4.93L316.03-4.93L316.03-4.93Q316.03-9.73 318.27-20.22L318.27-20.22L322.94-44.80L335.94-46.08L329.73-13.70L329.73-13.70Q328.64-8.96 328.64-7.30L328.64-7.30L328.64-7.30Q328.64-3.65 331.26-3.52ZM352-3.52L352-3.52L352-3.52Q350.02 1.28 343.68 1.28L343.68 1.28L343.68 1.28Q340.48 1.28 338.43-0.96L338.43-0.96L338.43-0.96Q336.77-2.82 336.77-4.93L336.77-4.93L336.77-4.93Q336.77-9.73 339.01-20.22L339.01-20.22L343.68-44.80L356.67-46.08L350.46-13.70L350.46-13.70Q349.38-8.96 349.38-7.30L349.38-7.30L349.38-7.30Q349.38-3.65 352-3.52ZM383.36-10.82L383.36-10.82L383.36-10.82Q384.96-9.73 384.96-7.33L384.96-7.33L384.96-7.33Q384.96-4.93 383.74-3.39L383.74-3.39L383.74-3.39Q382.53-1.86 380.54-0.83L380.54-0.83L380.54-0.83Q376.45 1.28 372.03 1.28L372.03 1.28L372.03 1.28Q367.62 1.28 365.02 0.32L365.02 0.32L365.02 0.32Q362.43-0.64 360.70-2.43L360.70-2.43L360.70-2.43Q357.31-5.82 357.31-12.03L357.31-12.03L357.31-12.03Q357.31-21.70 362.56-27.58L362.56-27.58L362.56-27.58Q368.19-33.92 377.98-33.92L377.98-33.92L377.98-33.92Q384.06-33.92 387.07-31.36L387.07-31.36L387.07-31.36Q389.31-29.44 389.31-26.30L389.31-26.30L389.31-26.30Q389.31-15.04 369.86-15.04L369.86-15.04L369.86-15.04Q369.60-13.38 369.60-11.97L369.60-11.97L369.60-11.97Q369.60-9.02 370.91-7.90L370.91-7.90L370.91-7.90Q372.22-6.78 374.66-6.78L374.66-6.78L374.66-6.78Q377.09-6.78 379.68-7.90L379.68-7.90L379.68-7.90Q382.27-9.02 383.36-10.82ZM370.30-17.79L370.30-17.79L370.30-17.79Q374.85-17.79 377.47-20.61L377.47-20.61L377.47-20.61Q380.10-23.30 380.10-27.58L380.10-27.58L380.10-27.58Q380.10-29.06 379.55-29.86L379.55-29.86L379.55-29.86Q379.01-30.66 377.92-30.66L377.92-30.66L377.92-30.66Q376.83-30.66 375.90-30.24L375.90-30.24L375.90-30.24Q374.98-29.82 374.02-28.42L374.02-28.42L374.02-28.42Q371.65-25.22 370.30-17.79ZM411.52-17.98L411.52-17.98L411.52-17.98Q413.82-22.08 413.82-26.24L413.82-26.24L413.82-26.24Q413.82-28.99 411.84-28.99L411.84-28.99L411.84-28.99Q410.30-28.99 408.70-26.37L408.70-26.37L408.70-26.37Q407.04-23.74 406.53-20.35L406.53-20.35L403.20 0L389.95 1.28L396.48-32.64L407.04-33.92L405.89-27.46L405.89-27.46Q409.02-33.92 416.06-33.92L416.06-33.92L416.06-33.92Q419.78-33.92 421.79-32L421.79-32L421.79-32Q423.81-30.08 423.81-26.14L423.81-26.14L423.81-26.14Q423.81-22.21 421.22-19.71L421.22-19.71L421.22-19.71Q418.62-17.22 414.21-17.22L414.21-17.22L414.21-17.22Q412.29-17.22 411.52-17.98ZM445.18-7.23L445.18-7.23L445.18-7.23Q441.86-3.78 435.78-3.78L435.78-3.78L435.78-3.78Q428.16-3.78 426.56-9.34L426.56-9.34L426.56-9.34Q426.05-11.01 426.05-12.86L426.05-12.86L426.05-12.86Q426.05-14.72 426.43-16.64L426.43-16.64L429.44-32.64L442.43-33.92L438.91-15.30L438.91-15.30Q438.78-14.46 438.59-13.57L438.59-13.57L438.59-13.57Q438.40-12.67 438.40-11.74L438.40-11.74L438.40-11.74Q438.40-10.82 438.72-10.21L438.72-10.21L438.72-10.21Q439.04-9.60 439.49-9.22L439.49-9.22L439.49-9.22Q440.26-8.70 441.63-8.70L441.63-8.70L441.63-8.70Q443.01-8.70 444.19-10.37L444.19-10.37L444.19-10.37Q445.38-12.03 445.95-14.91L445.95-14.91L449.47-32.64L462.08-33.92L457.28-8.77L457.28-8.77Q454.91 3.52 450.05 8.38L450.05 8.38L450.05 8.38Q447.55 10.88 444.32 11.87L444.32 11.87L444.32 11.87Q441.09 12.86 436.93 12.86L436.93 12.86L436.93 12.86Q430.21 12.86 426.37 10.75L426.37 10.75L426.37 10.75Q422.53 8.64 422.53 5.12L422.53 5.12L422.53 5.12Q422.53 2.50 424.51 0.99L424.51 0.99L424.51 0.99Q426.50-0.51 429.57-0.51L429.57-0.51L429.57-0.51Q432.26-0.51 434.30 0.64L434.30 0.64L434.30 0.64Q435.52 1.34 436.10 2.24L436.10 2.24L436.10 2.24Q434.62 3.52 434.62 5.63L434.62 5.63L434.62 5.63Q434.62 8.45 437.18 8.45L437.18 8.45L437.18 8.45Q441.41 8.45 443.84-1.28L443.84-1.28L443.84-1.28Q444.54-4.16 445.18-7.23Z" fill="url(#editing-glowing-gradient)"></path></g></g><style>text {
  font-size: 64px;
  font-family: Arial Black;
  dominant-baseline: central;
  text-anchor: middle;
}</style></svg>